<svg width="27" height="25" viewBox="0 0 27 25" fill="none" xmlns="http://www.w3.org/2000/svg">
<path fill-rule="evenodd" clip-rule="evenodd" d="M1.22292 24.7185H1.14002C1.14002 24.6771 1.11926 24.6149 1.11926 24.5939C1.11926 24.5733 1.11926 24.532 1.05698 24.532H0.932403V24.7185H0.870117V24.2828H1.05698C1.14002 24.2828 1.20216 24.3037 1.20216 24.3865C1.20216 24.4488 1.1814 24.4697 1.16079 24.4901C1.18155 24.511 1.20216 24.5318 1.20216 24.5733V24.6562C1.20216 24.6771 1.20216 24.6771 1.22292 24.6771V24.7185ZM1.14002 24.4074C1.14002 24.3451 1.0985 24.3451 1.07774 24.3451H0.932403V24.4697H1.05698C1.0985 24.4697 1.14002 24.4488 1.14002 24.4074V24.4074ZM1.49283 24.4903C1.49283 24.2414 1.28536 24.0337 1.01545 24.0337C0.766458 24.0337 0.558838 24.2414 0.558838 24.4903C0.558838 24.76 0.766458 24.9678 1.01545 24.9678C1.28521 24.9677 1.49283 24.76 1.49283 24.4903ZM1.43054 24.4903C1.43054 24.7187 1.24383 24.8846 1.01545 24.8846C0.787069 24.8846 0.621124 24.7185 0.621124 24.4903C0.621124 24.2828 0.78722 24.096 1.01545 24.096C1.24368 24.096 1.43054 24.2828 1.43054 24.4903ZM27 16.1056C27 16.7283 26.6057 17.0185 25.8999 17.0185H24.5511V16.3958H25.8999C26.0245 16.3958 26.1283 16.3752 26.17 16.3338C26.2113 16.2921 26.2529 16.2299 26.2529 16.147C26.2529 16.0638 26.2115 15.9809 26.17 15.9395C26.1283 15.8978 26.0454 15.8772 25.9208 15.8772C25.2776 15.8563 24.4681 15.8978 24.4681 14.9847C24.4681 14.5695 24.7378 14.1129 25.4642 14.1129H26.8547V14.7356H25.5679C25.4436 14.7356 25.3604 14.7356 25.2981 14.777C25.2358 14.8393 25.1944 14.9015 25.1944 15.0054C25.1944 15.1092 25.2567 15.1715 25.3396 15.2131C25.4228 15.2337 25.5059 15.2545 25.6097 15.2545H25.9831C26.3774 15.2545 26.6266 15.3374 26.7927 15.4829C26.9169 15.6281 27 15.8151 27 16.1056V16.1056ZM24.0736 15.4829C23.9075 15.3374 23.6584 15.2545 23.264 15.2545H22.8906C22.787 15.2545 22.7038 15.2336 22.6209 15.2131C22.5377 15.1715 22.4757 15.1092 22.4757 15.0054C22.4757 14.9015 22.4963 14.8393 22.5793 14.777C22.6416 14.7356 22.7245 14.7356 22.8491 14.7356H24.1359V14.1129H22.7454C21.9982 14.1129 21.749 14.5695 21.749 14.9847C21.749 15.8977 22.5586 15.8563 23.2021 15.8772C23.3263 15.8772 23.4095 15.8978 23.4509 15.9395C23.4923 15.9809 23.5341 16.0638 23.5341 16.147C23.5341 16.2299 23.4924 16.2921 23.4509 16.3338C23.3886 16.3752 23.3057 16.3958 23.1811 16.3958H21.8321V17.0185H23.1811C23.8866 17.0185 24.2811 16.7282 24.2811 16.1056C24.2811 15.8151 24.1982 15.6281 24.0736 15.4829V15.4829ZM21.417 16.4169H19.7777V15.8357H21.3756V15.2548H19.7777V14.715H21.417V14.1132H19.0927V17.0187H21.417V16.4169ZM18.3454 14.2585C18.117 14.134 17.8473 14.113 17.4945 14.113H15.8965V17.0185H16.602V15.9601H17.3493C17.5981 15.9601 17.7436 15.981 17.8474 16.0847C17.972 16.2299 17.972 16.479 17.972 16.6659V17.0185H18.6567V16.4581C18.6567 16.1883 18.6361 16.0638 18.553 15.9186C18.4907 15.8354 18.3665 15.7317 18.2004 15.6694C18.3869 15.6075 18.6985 15.3583 18.6985 14.9015C18.6984 14.5697 18.5738 14.3828 18.3454 14.2585V14.2585ZM14.4021 14.113H12.1813L11.2889 15.0678L10.4379 14.113H7.63612V17.0185H10.3966L11.289 16.0638L12.14 17.0185H13.489V16.0433H14.3608C14.9625 16.0433 15.5646 15.8772 15.5646 15.0678C15.5645 14.2791 14.9418 14.113 14.4021 14.113ZM17.785 15.3169C17.6813 15.3583 17.5775 15.3583 17.4529 15.3583L16.602 15.3792V14.7148H17.4529C17.5775 14.7148 17.7021 14.7148 17.785 14.7771C17.8682 14.8188 17.9302 14.9017 17.9302 15.0263C17.9302 15.1508 17.8682 15.2547 17.785 15.3169V15.3169ZM14.4021 15.4621H13.4889V14.7148H14.4021C14.6513 14.7148 14.8172 14.8188 14.8172 15.0678C14.8172 15.3169 14.6511 15.4621 14.4021 15.4621ZM11.7247 15.5658L12.8039 14.4245V16.7697L11.7247 15.5658ZM10.0436 16.4169H8.32097V15.8357H9.85675V15.2548H8.32097V14.715H10.0644L10.8323 15.5659L10.0436 16.4169V16.4169ZM25.0697 12.0168H24.0736L22.766 9.83758V12.0168H21.355L21.0849 11.3734H19.6322L19.3624 12.0168H18.5529C18.2208 12.0168 17.785 11.9338 17.5361 11.6846C17.3078 11.4356 17.1832 11.1036 17.1832 10.5847C17.1832 10.1489 17.2455 9.75453 17.5566 9.44325C17.7641 9.21487 18.1378 9.11121 18.615 9.11121H19.2791V9.73392H18.615C18.3662 9.73392 18.2207 9.77544 18.0755 9.90001C17.9509 10.0246 17.8886 10.2528 17.8886 10.5641C17.8886 10.8754 17.9509 11.1038 18.0755 11.2491C18.1792 11.3527 18.3662 11.3943 18.5527 11.3943H18.8641L19.8603 9.11136H20.8981L22.0603 11.8509V9.11121H23.1396L24.3641 11.1244V9.11121H25.0696V12.0168H25.0697V12.0168ZM16.8304 9.11121H16.1249V12.0168H16.8304V9.11121V9.11121ZM15.3567 9.23578C15.1283 9.11121 14.8795 9.11121 14.5267 9.11121H12.9285V12.0168H13.6133V10.9583H14.3604C14.6096 10.9583 14.7757 10.979 14.8793 11.0828C15.0039 11.2282 14.983 11.4773 14.983 11.6433V12.0168H15.6885V11.4356C15.6885 11.1867 15.6679 11.0621 15.5642 10.9167C15.5019 10.8337 15.3773 10.7299 15.2322 10.6678C15.4187 10.5847 15.7303 10.3565 15.7303 9.89986C15.7304 9.56782 15.585 9.38096 15.3567 9.23578ZM12.4303 11.415H10.8115V10.8339H12.4096V10.2321H10.8115V9.71315H12.4303V9.11136H10.1059V12.017H12.4303V11.415ZM9.587 9.11121H8.44554L7.5946 11.0828L6.68137 9.11121H5.56067V11.8507L4.37769 9.11121H3.34004L2.09477 12.0168H2.84191L3.11166 11.3734H4.5644L4.83415 12.0168H6.24552V9.73392L7.2624 12.0168H7.8642L8.88124 9.73392V12.0168H9.58685V9.11121H9.587ZM20.8361 10.7508L20.3586 9.60934L19.8813 10.7508H20.8361ZM14.8172 10.2943C14.7136 10.3566 14.6097 10.3566 14.4644 10.3566H13.6133V9.7133H14.4643C14.5888 9.7133 14.7339 9.7133 14.8171 9.75483C14.9 9.81711 14.9416 9.90016 14.9416 10.0246C14.9416 10.149 14.9001 10.2527 14.8172 10.2943V10.2943ZM3.36065 10.7508L3.83803 9.60934L4.31541 10.7508H3.36065V10.7508ZM26.834 0H2.07386V10.4603L2.9248 8.53017H4.73034L4.97949 9.00755V8.53017H7.09646L7.57383 9.56782L8.03045 8.53017H14.7757C15.0868 8.53017 15.3566 8.59246 15.5643 8.7584V8.53017H17.4114V8.7584C17.7225 8.59231 18.1169 8.53017 18.5736 8.53017H21.2509L21.5 9.00755V8.53017H23.4717L23.7623 9.00755V8.53017H25.6923V12.598H23.7416L23.3681 11.9755V12.598H20.9397L20.67 11.9339H20.0679L19.7981 12.598H18.5323C18.0341 12.598 17.6604 12.4734 17.4116 12.349V12.598H14.4021V11.664C14.4021 11.5395 14.3814 11.5187 14.2983 11.5187H14.1947V12.5979H8.38325V12.079L8.17578 12.5979H6.95128L6.74381 12.0997V12.5979H4.39845L4.14946 11.9338H3.54751L3.27776 12.5979H2.07386V24.8638H26.834V17.4128C26.5643 17.5374 26.1906 17.5997 25.817 17.5997H24.0113V17.3506C23.8038 17.5168 23.4301 17.5997 23.0775 17.5997H17.3906V16.6659C17.3906 16.5413 17.37 16.5413 17.2661 16.5413H17.1624V17.5997H15.2944V16.4998C14.9833 16.645 14.6304 16.645 14.3191 16.645H14.1115V17.5997H11.8285L11.289 16.977L10.6872 17.5997H7.01341V13.532H10.7492L11.2889 14.1544L11.8701 13.532H14.3814C14.6717 13.532 15.1493 13.5734 15.3567 13.7808V13.532H17.5981C17.8265 13.532 18.2625 13.5734 18.5529 13.7808V13.532H21.9359V13.781C22.1227 13.6149 22.4757 13.5322 22.7868 13.5322H24.6754V13.781C24.8832 13.6358 25.1735 13.5322 25.5473 13.5322H26.834V0V0Z" fill="#FBFBFF"/>
</svg>
